# xmcd
#
# Track frame offsets: 
#        182
#        16095
#        30212
#        43682
#        61852
#        76342
#        90402
#        105825
#        123050
#        139120
#
# Disc length: 2088 seconds
#
# Revision: 3
# Processed by: cddbd v1.5PL3 Copyright (c) Steve Scherf et al.
# Submitted via: ExactAudioCopy v0.90b4
#
DISCID=6108260a
DTITLE=Trace Adkins - Dreamin' Out Loud
DYEAR=1900
DGENRE=Country
TTITLE0=There's A Girl In Texas
TTITLE1=I Left Something Turned On At Home
TTITLE2=Every Light In The House
TTITLE3=(This Ain't) No Thinkin' Thing
TTITLE4=Dreamin' Out Loud
TTITLE5=If I Fall (You're Goin' With Me)
TTITLE6=It Was You 
TTITLE7=I Can Only Love You Like A Man
TTITLE8=634-5789
TTITLE9=A Bad Way Of Saying Goodbye
EXTD=
EXTT0=
EXTT1=
EXTT2=
EXTT3=
EXTT4=
EXTT5=
EXTT6=
EXTT7=
EXTT8=
EXTT9=
PLAYORDER=
